<svg width="30" height="30" viewBox="0 0 30 30" fill="none" xmlns="http://www.w3.org/2000/svg">
<path d="M0 8C0 3.58172 3.58172 0 8 0H22C26.4183 0 30 3.58172 30 8V22C30 26.4183 26.4183 30 22 30H8C3.58172 30 0 26.4183 0 22V8Z" fill="#8854DD"/>
<path fill-rule="evenodd" clip-rule="evenodd" d="M17.125 9L17.875 9.75H20.5V11.25H10V9.75H12.625L13.375 9H17.125ZM10.75 21C10.75 21.825 11.425 22.5 12.25 22.5H18.25C19.075 22.5 19.75 21.825 19.75 21V12H10.75V21ZM12.25 13.5H18.25V21H12.25V13.5Z" fill="white"/>
</svg>
