<svg width="30" height="30" viewBox="0 0 30 30" fill="none" xmlns="http://www.w3.org/2000/svg">
<path d="M0 7C0 3.13401 3.13401 0 7 0H23C26.866 0 30 3.13401 30 7V23C30 26.866 26.866 30 23 30H7C3.13401 30 0 26.866 0 23V7Z" fill="#F1F0FE" fill-opacity="0.7"/>
<path d="M20.1752 11.625H16.2084L17.6728 7.06172C17.8103 6.52734 17.415 6 16.8753 6H11.9253C11.5128 6 11.1622 6.31289 11.1072 6.73125L10.0072 15.1687C9.94193 15.675 10.3269 16.125 10.8254 16.125H14.9056L13.321 22.9629C13.1972 23.4973 13.5959 24 14.1219 24C14.4072 24 14.6856 23.8453 14.8369 23.5781L20.8868 12.8906C21.2065 12.3316 20.8112 11.625 20.1752 11.625ZM14.8231 21.3598L15.9747 16.3816L16.2944 14.9965H11.1382L12.166 7.125H16.4937L15.1634 11.2734L14.6891 12.75H19.6974L14.8231 21.3598Z" fill="#8854DD"/>
</svg>
