<svg width="27" height="27" viewBox="0 0 27 27" fill="none" xmlns="http://www.w3.org/2000/svg">
<path d="M13.5 0C5.95371 0 0.241682 6.28066 0.00109688 13.5L0 16.3055C0 18.4834 1.72705 20.25 3.85699 20.25H4.8215C5.88516 20.25 6.75 19.3693 6.75 18.2777V11.2535C6.75 10.1619 5.88516 9.28125 4.8215 9.28125H3.85699C3.68418 9.28125 3.52245 9.31894 3.35612 9.34179C4.99922 5.35254 8.92793 2.5418 13.5 2.54127C18.0742 2.54189 22.0008 5.35518 23.6461 9.29654C23.4773 9.31816 23.3139 9.28125 23.1451 9.28125H22.1806C21.1148 9.28125 20.25 10.1619 20.25 11.2535V18.2777C20.25 19.3693 21.1148 20.25 22.1801 20.25H23.1446C23.6126 20.25 24.0553 20.1519 24.4703 19.9958V21.0938C24.4703 22.2571 23.5243 23.2031 22.361 23.2031H16.5233C16.084 22.449 15.2771 21.9375 14.3438 21.9375H12.6562C11.2588 21.9375 10.125 23.0713 10.125 24.4688C10.125 25.8662 11.2588 27 12.6088 27H14.3438C15.2782 27 16.0856 26.4879 16.5238 25.7344H22.3594C24.9186 25.7344 27 23.6529 27 21.0938V13.5C26.7574 6.28066 21.0463 0 13.5 0ZM3.85699 11.8125H4.21875V17.7188H3.85699C3.12609 17.7188 2.53125 17.0385 2.53125 16.3055V13.5C2.53125 13.3729 2.54598 13.2495 2.5503 13.1234C2.60139 12.3926 3.15932 11.8125 3.85699 11.8125ZM23.1451 17.7188H22.7812V11.8125H23.1428C23.8405 11.8125 24.3985 12.3947 24.4496 13.1235C24.4529 13.2521 24.4688 13.3734 24.4688 13.5V16.3076C24.4688 17.0385 23.8729 17.7188 23.1451 17.7188Z" fill="#504780"/>
</svg>
