<svg width="27" height="27" viewBox="0 0 27 27" fill="none" xmlns="http://www.w3.org/2000/svg">
<path d="M13.5 0C6.04336 0 0 6.04336 0 13.5C0 20.9566 6.04336 27 13.5 27C20.9566 27 27 20.9566 27 13.5C27 6.04336 20.9566 0 13.5 0ZM13.5 24.4688C7.45137 24.4688 2.53125 19.5481 2.53125 13.5C2.53125 7.45189 7.45137 2.53125 13.5 2.53125C19.5486 2.53125 24.4688 7.45189 24.4688 13.5C24.4688 19.5481 19.5486 24.4688 13.5 24.4688ZM13.5 17.7188C12.5508 17.7188 11.8125 18.457 11.8125 19.4062C11.8125 20.3555 12.5033 21.0938 13.5 21.0938C14.4018 21.0938 15.1875 20.3555 15.1875 19.4062C15.1875 18.457 14.4018 17.7188 13.5 17.7188ZM15.2455 6.75H12.5508C10.4941 6.75 8.85938 8.38477 8.85938 10.4414C8.85938 11.127 9.43945 11.707 10.125 11.707C10.8105 11.707 11.3906 11.127 11.3906 10.4414C11.3906 9.80859 11.8705 9.28125 12.5033 9.28125H15.198C15.8783 9.28125 16.4531 9.80859 16.4531 10.4414C16.4531 10.8633 16.2422 11.185 15.873 11.3959L12.8672 13.2363C12.4453 13.5 12.2344 13.9219 12.2344 14.3438V15.1875C12.2344 15.873 12.8145 16.4531 13.5 16.4531C14.1855 16.4531 14.7656 15.873 14.7656 15.1875V15.082L17.1439 13.6055C18.2514 12.9199 18.9369 11.707 18.9369 10.4414C18.9844 8.38477 17.3496 6.75 15.2455 6.75Z" fill="#504780"/>
</svg>
