<svg width="44" height="40" viewBox="0 0 44 40" fill="none" xmlns="http://www.w3.org/2000/svg">
<path d="M10.0709 0H33.5596C38.9253 0 43.2567 4.32258 43.2567 9.67742V30.3226C43.2567 35.6774 38.9253 40 33.5596 40H10.0709C4.70517 40 0.373779 35.6774 0.373779 30.3226V9.67742C0.373779 4.32258 4.70517 0 10.0709 0Z" fill="#8854DD"/>
<path d="M30.3489 26.5161C30.6721 26.7957 30.6721 27.2903 30.3489 27.5484L26.8579 30.5591C26.4054 30.9462 25.7158 30.6237 25.7158 30.043V24.043C25.7158 23.4624 26.4054 23.1398 26.8579 23.5269L30.3489 26.5161Z" fill="white"/>
<path d="M26.0173 25.2688H9.70455C8.67019 25.2688 7.85132 26.043 7.85132 26.9892C7.85132 27.9355 8.67019 28.7097 9.70455 28.7097H26.0173C27.0516 28.7097 27.8705 27.9355 27.8705 26.9892C27.8705 26.0215 27.0301 25.2688 26.0173 25.2688Z" fill="white"/>
<path d="M30.3489 12.7744C30.6721 13.054 30.6721 13.5486 30.3489 13.8067L26.8579 16.8174C26.4054 17.2045 25.7158 16.882 25.7158 16.3013V10.3013C25.7158 9.72067 26.4054 9.39809 26.8579 9.78518L30.3489 12.7744Z" fill="white"/>
<path d="M26.3834 11.5271H10.0708C9.0364 11.5271 8.21753 12.3013 8.21753 13.2475C8.21753 14.1938 9.0364 14.968 10.0708 14.968H26.3834C27.4178 14.968 28.2367 14.1938 28.2367 13.2475C28.2367 12.3013 27.4178 11.5271 26.3834 11.5271Z" fill="white"/>
<path d="M36.5761 19.6343C36.8993 19.9139 36.8993 20.4085 36.5761 20.6665L33.0851 23.6773C32.6326 24.0644 31.943 23.7418 31.943 23.1612V17.1612C31.943 16.5805 32.6326 16.2579 33.0851 16.645L36.5761 19.6343Z" fill="white"/>
<path d="M32.9557 18.387H16.643C15.6087 18.387 14.7898 19.1612 14.7898 20.1074C14.7898 21.0536 15.6087 21.8278 16.643 21.8278H32.9557C33.9901 21.8278 34.8089 21.0536 34.8089 20.1074C34.8089 19.1612 33.9901 18.387 32.9557 18.387Z" fill="white"/>
</svg>
