<svg width="27" height="27" viewBox="0 0 27 27" fill="none" xmlns="http://www.w3.org/2000/svg">
<path d="M10.125 14.4643H1.6875C0.755684 14.4643 0 15.3279 0 16.3929V25.0714C0 26.1364 0.755684 27 1.6875 27H10.125C11.0568 27 11.8125 26.1364 11.8125 25.0714V16.3929C11.8125 15.3261 11.0584 14.4643 10.125 14.4643ZM9.28125 24.1071H2.53125V17.3571H9.28125V24.1071ZM25.3125 9.64286H15.1875C14.2557 9.64286 13.5 10.5065 13.5 11.5714V15.4286C13.5 16.4935 14.2557 17.3571 15.1875 17.3571H25.3125C26.2443 17.3571 27 16.4935 27 15.4286V11.5714C27 10.5047 26.2459 9.64286 25.3125 9.64286ZM24.4688 14.4643H16.0312V12.5357H24.4688V14.4643ZM25.3125 0H15.1875C14.2557 0 13.5 0.863638 13.5 1.92857V5.78571C13.5 6.85065 14.2557 7.71429 15.1875 7.71429H25.3125C26.2443 7.71429 27 6.85065 27 5.78571V1.92857C27 0.863638 26.2459 0 25.3125 0ZM24.4688 4.82143H16.0312V2.89286H24.4688V4.82143ZM10.125 0H1.6875C0.755684 0 0 0.863638 0 1.92857V10.6071C0 11.6721 0.755684 12.5357 1.6875 12.5357H10.125C11.0568 12.5357 11.8125 11.6721 11.8125 10.6071V1.92857C11.8125 0.863638 11.0584 0 10.125 0ZM9.28125 9.64286H2.53125V2.89286H9.28125V9.64286ZM25.3125 19.2857H15.1875C14.2557 19.2857 13.5 20.1494 13.5 21.2143V25.0714C13.5 26.1364 14.2557 27 15.1875 27H25.3125C26.2443 27 27 26.1364 27 25.0714V21.2143C27 20.1475 26.2459 19.2857 25.3125 19.2857ZM24.4688 24.1071H16.0312V22.1786H24.4688V24.1071Z" fill="#504780"/>
</svg>
