<svg width="27" height="27" viewBox="0 0 27 27" fill="none" xmlns="http://www.w3.org/2000/svg">
<path d="M26.6926 7.84085L23.572 1.60312C23.0826 0.619554 22.0821 0 20.9853 0H6.01353C4.91786 0 3.9156 0.618951 3.42563 1.59951L0.305317 7.84085C0.104504 8.24464 0 8.6846 0 9.13058V23.1429C0 25.2733 1.72667 27 3.85714 27H23.1429C25.2733 27 27 25.2733 27 23.1429V9.13058C27 8.6846 26.8975 8.24464 26.6926 7.84085ZM14.4643 1.92857H20.9853C21.3544 1.92857 21.6838 2.13198 21.8477 2.46158L24.4748 7.71429H14.4643V1.92857ZM5.15109 2.46074C5.31502 2.13228 5.64469 1.92857 6.01353 1.92857H12.5357V7.71429H2.52462L5.15109 2.46074ZM25.0714 23.1429C25.0714 24.2078 24.2078 25.0714 23.1429 25.0714H3.85714C2.79221 25.0714 1.92857 24.2078 1.92857 23.1429V9.64286H25.0714V23.1429Z" fill="#504780"/>
</svg>
